<?xml version="1.0" standalone="no"?>
<svg xmlns:xlink="http://www.w3.org/1999/xlink" id="wave" style="transform:rotate(0deg); transition: 0.3s" viewBox="0 0 1440 170" version="1.1" xmlns="http://www.w3.org/2000/svg"><defs><linearGradient id="sw-gradient-0" x1="0" x2="0" y1="1" y2="0"><stop stop-color="rgba(12, 169, 20, 1)" offset="0%"/><stop stop-color="rgba(11, 15.305, 255, 0.87)" offset="100%"/></linearGradient></defs><path style="transform:translate(0, 0px); opacity:1" fill="url(#sw-gradient-0)" d="M0,68L60,76.5C120,85,240,102,360,96.3C480,91,600,62,720,45.3C840,28,960,23,1080,25.5C1200,28,1320,40,1440,48.2C1560,57,1680,62,1800,68C1920,74,2040,79,2160,87.8C2280,96,2400,108,2520,110.5C2640,113,2760,108,2880,96.3C3000,85,3120,68,3240,68C3360,68,3480,85,3600,85C3720,85,3840,68,3960,53.8C4080,40,4200,28,4320,25.5C4440,23,4560,28,4680,45.3C4800,62,4920,91,5040,90.7C5160,91,5280,62,5400,62.3C5520,62,5640,91,5760,107.7C5880,125,6000,130,6120,116.2C6240,102,6360,68,6480,65.2C6600,62,6720,91,6840,96.3C6960,102,7080,85,7200,68C7320,51,7440,34,7560,34C7680,34,7800,51,7920,62.3C8040,74,8160,79,8280,76.5C8400,74,8520,62,8580,56.7L8640,51L8640,170L8580,170C8520,170,8400,170,8280,170C8160,170,8040,170,7920,170C7800,170,7680,170,7560,170C7440,170,7320,170,7200,170C7080,170,6960,170,6840,170C6720,170,6600,170,6480,170C6360,170,6240,170,6120,170C6000,170,5880,170,5760,170C5640,170,5520,170,5400,170C5280,170,5160,170,5040,170C4920,170,4800,170,4680,170C4560,170,4440,170,4320,170C4200,170,4080,170,3960,170C3840,170,3720,170,3600,170C3480,170,3360,170,3240,170C3120,170,3000,170,2880,170C2760,170,2640,170,2520,170C2400,170,2280,170,2160,170C2040,170,1920,170,1800,170C1680,170,1560,170,1440,170C1320,170,1200,170,1080,170C960,170,840,170,720,170C600,170,480,170,360,170C240,170,120,170,60,170L0,170Z"/></svg>