<?xml version="1.0" standalone="no"?>
<svg xmlns:xlink="http://www.w3.org/1999/xlink" id="wave" style="transform:rotate(0deg); transition: 0.3s" viewBox="0 0 1440 330" version="1.1" xmlns="http://www.w3.org/2000/svg"><defs><linearGradient id="sw-gradient-0" x1="0" x2="0" y1="1" y2="0"><stop stop-color="rgba(0, 168.802, 8.696, 1)" offset="0%"/><stop stop-color="rgba(11, 15.305, 255, 0.87)" offset="100%"/></linearGradient></defs><path style="transform:translate(0, 0px); opacity:1" fill="url(#sw-gradient-0)" d="M0,132L60,148.5C120,165,240,198,360,187C480,176,600,121,720,88C840,55,960,44,1080,49.5C1200,55,1320,77,1440,93.5C1560,110,1680,121,1800,132C1920,143,2040,154,2160,170.5C2280,187,2400,209,2520,214.5C2640,220,2760,209,2880,187C3000,165,3120,132,3240,132C3360,132,3480,165,3600,165C3720,165,3840,132,3960,104.5C4080,77,4200,55,4320,49.5C4440,44,4560,55,4680,88C4800,121,4920,176,5040,176C5160,176,5280,121,5400,121C5520,121,5640,176,5760,209C5880,242,6000,253,6120,225.5C6240,198,6360,132,6480,126.5C6600,121,6720,176,6840,187C6960,198,7080,165,7200,132C7320,99,7440,66,7560,66C7680,66,7800,99,7920,121C8040,143,8160,154,8280,148.5C8400,143,8520,121,8580,110L8640,99L8640,330L8580,330C8520,330,8400,330,8280,330C8160,330,8040,330,7920,330C7800,330,7680,330,7560,330C7440,330,7320,330,7200,330C7080,330,6960,330,6840,330C6720,330,6600,330,6480,330C6360,330,6240,330,6120,330C6000,330,5880,330,5760,330C5640,330,5520,330,5400,330C5280,330,5160,330,5040,330C4920,330,4800,330,4680,330C4560,330,4440,330,4320,330C4200,330,4080,330,3960,330C3840,330,3720,330,3600,330C3480,330,3360,330,3240,330C3120,330,3000,330,2880,330C2760,330,2640,330,2520,330C2400,330,2280,330,2160,330C2040,330,1920,330,1800,330C1680,330,1560,330,1440,330C1320,330,1200,330,1080,330C960,330,840,330,720,330C600,330,480,330,360,330C240,330,120,330,60,330L0,330Z"/></svg>