<?xml version="1.0" standalone="no"?>
<svg xmlns:xlink="http://www.w3.org/1999/xlink" id="wave" style="transform:rotate(180deg); transition: 0.3s" viewBox="0 0 1440 100" version="1.1" xmlns="http://www.w3.org/2000/svg"><defs><linearGradient id="sw-gradient-0" x1="0" x2="0" y1="1" y2="0"><stop stop-color="rgba(255, 255, 255, 1)" offset="0%"/><stop stop-color="rgba(0, 144, 61.076, 1)" offset="100%"/></linearGradient></defs><path style="transform:translate(0, 0px); opacity:1" fill="url(#sw-gradient-0)" d="M0,30L30,26.7C60,23,120,17,180,11.7C240,7,300,3,360,6.7C420,10,480,20,540,30C600,40,660,50,720,51.7C780,53,840,47,900,40C960,33,1020,27,1080,28.3C1140,30,1200,40,1260,36.7C1320,33,1380,17,1440,15C1500,13,1560,27,1620,36.7C1680,47,1740,53,1800,50C1860,47,1920,33,1980,25C2040,17,2100,13,2160,18.3C2220,23,2280,37,2340,35C2400,33,2460,17,2520,11.7C2580,7,2640,13,2700,20C2760,27,2820,33,2880,35C2940,37,3000,33,3060,28.3C3120,23,3180,17,3240,13.3C3300,10,3360,10,3420,10C3480,10,3540,10,3600,16.7C3660,23,3720,37,3780,40C3840,43,3900,37,3960,40C4020,43,4080,57,4140,55C4200,53,4260,37,4290,28.3L4320,20L4320,100L4290,100C4260,100,4200,100,4140,100C4080,100,4020,100,3960,100C3900,100,3840,100,3780,100C3720,100,3660,100,3600,100C3540,100,3480,100,3420,100C3360,100,3300,100,3240,100C3180,100,3120,100,3060,100C3000,100,2940,100,2880,100C2820,100,2760,100,2700,100C2640,100,2580,100,2520,100C2460,100,2400,100,2340,100C2280,100,2220,100,2160,100C2100,100,2040,100,1980,100C1920,100,1860,100,1800,100C1740,100,1680,100,1620,100C1560,100,1500,100,1440,100C1380,100,1320,100,1260,100C1200,100,1140,100,1080,100C1020,100,960,100,900,100C840,100,780,100,720,100C660,100,600,100,540,100C480,100,420,100,360,100C300,100,240,100,180,100C120,100,60,100,30,100L0,100Z"/></svg>