<?xml version="1.0" standalone="no"?>
<svg xmlns:xlink="http://www.w3.org/1999/xlink" id="wave" style="transform:rotate(180deg); transition: 0.3s" viewBox="0 0 1440 110" version="1.1" xmlns="http://www.w3.org/2000/svg"><defs><linearGradient id="sw-gradient-0" x1="0" x2="0" y1="1" y2="0"><stop stop-color="rgba(0, 71, 144, 1)" offset="0%"/><stop stop-color="rgba(0, 71, 144, 1)" offset="100%"/></linearGradient></defs><path style="transform:translate(0, 0px); opacity:1" fill="url(#sw-gradient-0)" d="M0,33L40,29.3C80,26,160,18,240,12.8C320,7,400,4,480,7.3C560,11,640,22,720,33C800,44,880,55,960,56.8C1040,59,1120,51,1200,44C1280,37,1360,29,1440,31.2C1520,33,1600,44,1680,40.3C1760,37,1840,18,1920,16.5C2000,15,2080,29,2160,40.3C2240,51,2320,59,2400,55C2480,51,2560,37,2640,27.5C2720,18,2800,15,2880,20.2C2960,26,3040,40,3120,38.5C3200,37,3280,18,3360,12.8C3440,7,3520,15,3600,22C3680,29,3760,37,3840,38.5C3920,40,4000,37,4080,31.2C4160,26,4240,18,4320,14.7C4400,11,4480,11,4560,11C4640,11,4720,11,4800,18.3C4880,26,4960,40,5040,44C5120,48,5200,40,5280,44C5360,48,5440,62,5520,60.5C5600,59,5680,40,5720,31.2L5760,22L5760,110L5720,110C5680,110,5600,110,5520,110C5440,110,5360,110,5280,110C5200,110,5120,110,5040,110C4960,110,4880,110,4800,110C4720,110,4640,110,4560,110C4480,110,4400,110,4320,110C4240,110,4160,110,4080,110C4000,110,3920,110,3840,110C3760,110,3680,110,3600,110C3520,110,3440,110,3360,110C3280,110,3200,110,3120,110C3040,110,2960,110,2880,110C2800,110,2720,110,2640,110C2560,110,2480,110,2400,110C2320,110,2240,110,2160,110C2080,110,2000,110,1920,110C1840,110,1760,110,1680,110C1600,110,1520,110,1440,110C1360,110,1280,110,1200,110C1120,110,1040,110,960,110C880,110,800,110,720,110C640,110,560,110,480,110C400,110,320,110,240,110C160,110,80,110,40,110L0,110Z"/></svg>