<?xml version="1.0" standalone="no"?>
<svg xmlns:xlink="http://www.w3.org/1999/xlink" id="wave" style="transform:rotate(0deg); transition: 0.3s" viewBox="0 0 1440 280" version="1.1" xmlns="http://www.w3.org/2000/svg"><defs><linearGradient id="sw-gradient-0" x1="0" x2="0" y1="1" y2="0"><stop stop-color="rgba(33.043, 193.847, 11.56, 1)" offset="0%"/><stop stop-color="rgba(30.5, 166.526, 6.17, 1)" offset="100%"/></linearGradient></defs><path style="transform:translate(0, 0px); opacity:1" fill="url(#sw-gradient-0)" d="M0,56L60,46.7C120,37,240,19,360,51.3C480,84,600,168,720,186.7C840,205,960,159,1080,140C1200,121,1320,131,1440,135.3C1560,140,1680,140,1800,158.7C1920,177,2040,215,2160,191.3C2280,168,2400,84,2520,84C2640,84,2760,168,2880,168C3000,168,3120,84,3240,60.7C3360,37,3480,75,3600,79.3C3720,84,3840,56,3960,79.3C4080,103,4200,177,4320,196C4440,215,4560,177,4680,168C4800,159,4920,177,5040,191.3C5160,205,5280,215,5400,182C5520,149,5640,75,5760,46.7C5880,19,6000,37,6120,46.7C6240,56,6360,56,6480,51.3C6600,47,6720,37,6840,65.3C6960,93,7080,159,7200,172.7C7320,187,7440,149,7560,116.7C7680,84,7800,56,7920,56C8040,56,8160,84,8280,121.3C8400,159,8520,205,8580,228.7L8640,252L8640,280L8580,280C8520,280,8400,280,8280,280C8160,280,8040,280,7920,280C7800,280,7680,280,7560,280C7440,280,7320,280,7200,280C7080,280,6960,280,6840,280C6720,280,6600,280,6480,280C6360,280,6240,280,6120,280C6000,280,5880,280,5760,280C5640,280,5520,280,5400,280C5280,280,5160,280,5040,280C4920,280,4800,280,4680,280C4560,280,4440,280,4320,280C4200,280,4080,280,3960,280C3840,280,3720,280,3600,280C3480,280,3360,280,3240,280C3120,280,3000,280,2880,280C2760,280,2640,280,2520,280C2400,280,2280,280,2160,280C2040,280,1920,280,1800,280C1680,280,1560,280,1440,280C1320,280,1200,280,1080,280C960,280,840,280,720,280C600,280,480,280,360,280C240,280,120,280,60,280L0,280Z"/><defs><linearGradient id="sw-gradient-1" x1="0" x2="0" y1="1" y2="0"><stop stop-color="rgba(230.276, 145.55, 2.031, 1)" offset="0%"/><stop stop-color="rgba(255, 123.099, 11, 1)" offset="100%"/></linearGradient></defs><path style="transform:translate(0, 50px); opacity:0.9" fill="url(#sw-gradient-1)" d="M0,0L60,14C120,28,240,56,360,74.7C480,93,600,103,720,130.7C840,159,960,205,1080,205.3C1200,205,1320,159,1440,121.3C1560,84,1680,56,1800,46.7C1920,37,2040,47,2160,46.7C2280,47,2400,37,2520,70C2640,103,2760,177,2880,210C3000,243,3120,233,3240,196C3360,159,3480,93,3600,84C3720,75,3840,121,3960,126C4080,131,4200,93,4320,102.7C4440,112,4560,168,4680,200.7C4800,233,4920,243,5040,214.7C5160,187,5280,121,5400,93.3C5520,65,5640,75,5760,79.3C5880,84,6000,84,6120,70C6240,56,6360,28,6480,14C6600,0,6720,0,6840,42C6960,84,7080,168,7200,205.3C7320,243,7440,233,7560,191.3C7680,149,7800,75,7920,56C8040,37,8160,75,8280,79.3C8400,84,8520,56,8580,42L8640,28L8640,280L8580,280C8520,280,8400,280,8280,280C8160,280,8040,280,7920,280C7800,280,7680,280,7560,280C7440,280,7320,280,7200,280C7080,280,6960,280,6840,280C6720,280,6600,280,6480,280C6360,280,6240,280,6120,280C6000,280,5880,280,5760,280C5640,280,5520,280,5400,280C5280,280,5160,280,5040,280C4920,280,4800,280,4680,280C4560,280,4440,280,4320,280C4200,280,4080,280,3960,280C3840,280,3720,280,3600,280C3480,280,3360,280,3240,280C3120,280,3000,280,2880,280C2760,280,2640,280,2520,280C2400,280,2280,280,2160,280C2040,280,1920,280,1800,280C1680,280,1560,280,1440,280C1320,280,1200,280,1080,280C960,280,840,280,720,280C600,280,480,280,360,280C240,280,120,280,60,280L0,280Z"/><defs><linearGradient id="sw-gradient-2" x1="0" x2="0" y1="1" y2="0"><stop stop-color="rgba(125.071, 0, 255, 1)" offset="0%"/><stop stop-color="rgba(0, 151.344, 255, 1)" offset="100%"/></linearGradient></defs><path style="transform:translate(0, 100px); opacity:0.8" fill="url(#sw-gradient-2)" d="M0,28L60,28C120,28,240,28,360,56C480,84,600,140,720,144.7C840,149,960,103,1080,93.3C1200,84,1320,112,1440,126C1560,140,1680,140,1800,149.3C1920,159,2040,177,2160,154C2280,131,2400,65,2520,37.3C2640,9,2760,19,2880,46.7C3000,75,3120,121,3240,154C3360,187,3480,205,3600,177.3C3720,149,3840,75,3960,37.3C4080,0,4200,0,4320,18.7C4440,37,4560,75,4680,88.7C4800,103,4920,93,5040,102.7C5160,112,5280,140,5400,154C5520,168,5640,168,5760,149.3C5880,131,6000,93,6120,70C6240,47,6360,37,6480,28C6600,19,6720,9,6840,28C6960,47,7080,93,7200,121.3C7320,149,7440,159,7560,168C7680,177,7800,187,7920,158.7C8040,131,8160,65,8280,74.7C8400,84,8520,168,8580,210L8640,252L8640,280L8580,280C8520,280,8400,280,8280,280C8160,280,8040,280,7920,280C7800,280,7680,280,7560,280C7440,280,7320,280,7200,280C7080,280,6960,280,6840,280C6720,280,6600,280,6480,280C6360,280,6240,280,6120,280C6000,280,5880,280,5760,280C5640,280,5520,280,5400,280C5280,280,5160,280,5040,280C4920,280,4800,280,4680,280C4560,280,4440,280,4320,280C4200,280,4080,280,3960,280C3840,280,3720,280,3600,280C3480,280,3360,280,3240,280C3120,280,3000,280,2880,280C2760,280,2640,280,2520,280C2400,280,2280,280,2160,280C2040,280,1920,280,1800,280C1680,280,1560,280,1440,280C1320,280,1200,280,1080,280C960,280,840,280,720,280C600,280,480,280,360,280C240,280,120,280,60,280L0,280Z"/></svg>